<svg width="74" height="109" viewBox="0 0 74 109" fill="none" xmlns="http://www.w3.org/2000/svg">
<path d="M36.0617 6.10352e-05C36.0617 6.10352e-05 -5.0313 47.9666 0.51483 75.135C3.86063 91.5247 16.7127 108.365 37.982 108.299C59.2513 108.234 70.4929 92.1099 73.5289 76.4444C78.9329 48.5607 36.0617 6.10352e-05 36.0617 6.10352e-05Z" fill="#003DAA"/>
<path d="M40.5835 108.3L70.7486 48.3704L40.5835 108.3Z" fill="black"/>
<path d="M65.3136 42.4444L53.7932 54.9609C68.9228 76.6327 59.7418 91.9295 37.9819 108.3C59.2512 108.234 70.4926 92.1098 73.5286 76.4443C75.425 66.6593 71.3682 54.33 65.3136 42.4444Z" fill="#025A9A"/>
<path d="M53.838 54.9601L24.0801 86.7263L44.3003 103.281C62.433 88.3348 66.8243 73.4486 53.838 54.9601Z" fill="#0C7EC5"/>
<path d="M24.0811 86.7263L12.7231 98.0738C18.9943 104.22 27.4559 108.332 37.9829 108.3C40.3211 106.605 42.2023 105.062 44.3013 103.281L24.0811 86.7263Z" fill="#026EB4"/>
<path d="M24.0803 86.7262L0.105892 67.1586C-0.105138 69.9569 0.00438773 72.6352 0.514678 75.1349C2.2045 83.4127 6.3229 91.8021 12.7223 98.0737L24.0803 86.7262Z" fill="#1C9AD7"/>
<path d="M53.866 54.9609L36.0547 28.9553L36.0591 73.9594L53.866 54.9609Z" fill="#2BAEE2"/>
<path d="M36.0553 28.9295L8.5415 74.0467L24.0809 86.7264L36.0567 73.9505L36.0553 28.9295Z" fill="#7BDDF6"/>
<path d="M36.0623 0C36.0623 0 2.189 39.5437 0.106445 67.1587L8.54146 74.0618L36.0638 28.9553L36.0623 0Z" fill="#49C0E8"/>
<path d="M36.062 0L36.0635 28.9639L53.8533 54.9808L65.3139 42.4444C54.1152 20.4609 36.062 0 36.062 0Z" fill="#138ACE"/>
</svg>
