<svg width="120" height="21" viewBox="0 0 120 21" fill="none" xmlns="http://www.w3.org/2000/svg">
<path d="M9.16572 11.2548C9.26781 11.2548 9.9751 9.8402 11.2876 7.01104C12.6001 4.17458 13.4095 2.52301 13.7157 2.05635C14.022 1.58968 14.3756 1.27614 14.7767 1.11572C15.1777 0.948015 15.8157 0.86416 16.6907 0.86416C17.573 0.86416 18.0142 1.06833 18.0142 1.47666L17.7517 1.80479L17.4126 2.16572C17.1938 2.4501 17.0371 2.78187 16.9423 3.16104C16.8548 3.53291 16.811 4.14906 16.811 5.00947C16.811 8.66989 16.9058 11.3386 17.0954 13.0157C17.1683 13.672 17.4053 14.1897 17.8063 14.5688C18.2074 14.9407 18.4079 15.1886 18.4079 15.3126L18.1345 15.5095C17.7845 15.6699 17.0954 15.7501 16.0673 15.7501C15.0392 15.7501 14.3938 15.6152 14.1313 15.3454L14.022 15.1048C14.022 14.8933 14.1022 14.4595 14.2626 13.8032C14.423 13.1397 14.5032 12.4798 14.5032 11.8235C14.5032 7.0402 14.3501 4.64854 14.0438 4.64854C13.8907 4.64854 13.1944 6.12874 11.9548 9.08916C10.7152 12.0496 9.95322 13.7886 9.66885 14.3063C9.39176 14.8168 9.02353 15.072 8.56416 15.072C8.24333 15.072 7.36468 13.322 5.92822 9.82197C4.49906 6.31468 3.66051 4.56104 3.4126 4.56104C3.20843 4.56104 3.10635 6.35114 3.10635 9.93135C3.10635 11.5209 3.13187 12.498 3.18291 12.8626C3.23395 13.2272 3.31781 13.6647 3.43447 14.1751C3.55843 14.6855 3.62041 15.0246 3.62041 15.1923C3.62041 15.36 3.50739 15.4985 3.28135 15.6079C3.05531 15.7173 2.76364 15.772 2.40635 15.772H1.80479C0.60166 15.772 9.76352e-05 15.6188 9.76352e-05 15.3126C9.76352e-05 15.1595 0.204264 14.9079 0.612598 14.5579C1.02822 14.2006 1.26885 13.8944 1.33447 13.6392C1.40739 13.3767 1.50218 12.0642 1.61885 9.70166C1.73551 7.33187 1.79385 5.72406 1.79385 4.87822C1.79385 4.03239 1.74281 3.44541 1.64072 3.11729C1.53864 2.78187 1.30166 2.43187 0.929785 2.06729C0.565202 1.7027 0.38291 1.42562 0.38291 1.23604C0.38291 1.0027 1.05739 0.886035 2.40635 0.886035C2.92406 0.886035 3.37249 0.958952 3.75166 1.10479C4.13083 1.24333 4.5027 1.58239 4.86729 2.12197C5.23916 2.65426 6.01208 4.30947 7.18604 7.0876C8.35999 9.86572 9.01989 11.2548 9.16572 11.2548ZM26.3595 10.872H26.1735C25.2183 10.872 24.4199 11.0871 23.7782 11.5173C23.1438 11.9402 22.8267 12.4688 22.8267 13.1032V13.322C22.8267 13.6938 22.9397 14.0293 23.1657 14.3282C23.3991 14.6199 23.698 14.7657 24.0626 14.7657L24.1938 14.7876H24.522C25.2803 14.7876 25.9001 14.4777 26.3813 13.8579C26.5928 13.5881 26.6985 13.034 26.6985 12.1954C26.6985 12.1298 26.6985 12.0642 26.6985 11.9985L26.7095 11.736V11.4735C26.7095 11.0725 26.5928 10.872 26.3595 10.872ZM21.0438 7.33916C21.0438 6.79958 21.4704 6.31833 22.3235 5.89541C23.184 5.4652 24.0735 5.2501 24.9923 5.2501C25.0215 5.2501 25.0506 5.2501 25.0798 5.2501C25.9548 5.2501 26.6548 5.35583 27.1798 5.56729C28.2444 5.9902 28.8532 6.88708 29.0063 8.25791C29.0209 8.39645 29.0282 9.3152 29.0282 11.0142C29.0282 12.7058 29.072 13.6975 29.1595 13.9892C29.2543 14.2808 29.5022 14.4959 29.9032 14.6345C30.3116 14.773 30.5157 14.9043 30.5157 15.0282C30.5157 15.2907 30.3845 15.4912 30.122 15.6298C29.597 15.9069 29.0793 16.0454 28.5688 16.0454C28.0657 16.0454 27.6902 15.9287 27.4423 15.6954C26.9975 15.2798 26.7605 15.072 26.7313 15.072C26.7022 15.072 26.2902 15.2579 25.4954 15.6298C24.7006 15.9944 24.0043 16.1767 23.4063 16.1767C22.5095 16.1767 21.8058 15.9287 21.2954 15.4329C20.785 14.9371 20.5298 14.3355 20.5298 13.6282V13.3548C20.5298 12.5965 20.8579 11.9293 21.5142 11.3532C22.1704 10.7772 23.3517 10.3287 25.0579 10.0079C25.6777 9.89124 26.0678 9.78187 26.2282 9.67979C26.5491 9.47562 26.7095 9.05999 26.7095 8.43291C26.7095 7.80583 26.5418 7.32458 26.2063 6.98916C25.8709 6.65374 25.4225 6.48604 24.861 6.48604C24.2996 6.48604 23.7563 6.81416 23.2313 7.47041C22.7136 8.11937 22.2397 8.44385 21.8095 8.44385C21.2991 8.44385 21.0438 8.07562 21.0438 7.33916ZM33.786 15.8485C32.7579 15.8485 32.2438 15.7027 32.2438 15.411C32.2438 15.1704 32.3787 14.9735 32.6485 14.8204C33.1371 14.5433 33.4215 14.2954 33.5017 14.0767C33.5819 13.8506 33.622 12.797 33.622 10.9157C33.622 9.02718 33.5636 7.92249 33.447 7.60166C33.3376 7.27354 33.1334 7.00374 32.8345 6.79229C32.5355 6.58083 32.386 6.40947 32.386 6.27822C32.386 6.14697 32.4845 6.02301 32.6813 5.90635C33.1407 5.63656 33.8699 5.50166 34.8688 5.50166C35.1678 5.50166 35.4011 5.60374 35.5688 5.80791C35.6272 5.88083 35.7074 6.04124 35.8095 6.28916C35.9188 6.52979 35.9918 6.6501 36.0282 6.6501C36.1668 6.64281 36.3819 6.54437 36.6735 6.35479C37.6798 5.67666 38.5912 5.3376 39.4079 5.3376H39.4298H39.7798C40.3704 5.3376 40.9027 5.48343 41.3767 5.7751C41.8506 6.06676 42.2152 6.50426 42.4704 7.0876C42.7329 7.67093 42.8642 8.94333 42.8642 10.9048C42.8642 12.859 42.9043 13.9527 42.9845 14.186C43.072 14.4121 43.309 14.6235 43.6954 14.8204C44.0892 15.0173 44.286 15.2105 44.286 15.4001C44.286 15.7282 43.2506 15.8923 41.1798 15.8923H40.8517C40.1954 15.8923 39.8673 15.7355 39.8673 15.422C39.8673 15.3563 39.9475 15.1996 40.1079 14.9517C40.2683 14.6965 40.3777 14.4157 40.436 14.1095C40.4944 13.8032 40.5235 12.797 40.5235 11.0907C40.5235 9.37718 40.4178 8.27614 40.2063 7.7876C39.9147 7.11676 39.4298 6.78135 38.7517 6.78135C38.2558 6.78135 37.7746 6.89801 37.3079 7.13135C36.8485 7.35739 36.5131 7.68187 36.3017 8.10479C36.0975 8.52041 35.9954 9.52301 35.9954 11.1126C35.9954 12.6949 36.0392 13.6537 36.1267 13.9892C36.2142 14.3173 36.3199 14.5834 36.4438 14.7876L36.8485 15.4438C36.8485 15.7282 36.2761 15.8704 35.1313 15.8704L34.4642 15.8485H33.786ZM51.6251 10.872H51.4392C50.484 10.872 49.6855 11.0871 49.0438 11.5173C48.4095 11.9402 48.0923 12.4688 48.0923 13.1032V13.322C48.0923 13.6938 48.2053 14.0293 48.4313 14.3282C48.6647 14.6199 48.9636 14.7657 49.3282 14.7657L49.4595 14.7876H49.7876C50.5459 14.7876 51.1657 14.4777 51.647 13.8579C51.8584 13.5881 51.9642 13.034 51.9642 12.1954C51.9642 12.1298 51.9642 12.0642 51.9642 11.9985L51.9751 11.736V11.4735C51.9751 11.0725 51.8584 10.872 51.6251 10.872ZM46.3095 7.33916C46.3095 6.79958 46.736 6.31833 47.5892 5.89541C48.4496 5.4652 49.3392 5.2501 50.2579 5.2501C50.2871 5.2501 50.3162 5.2501 50.3454 5.2501C51.2204 5.2501 51.9204 5.35583 52.4454 5.56729C53.51 5.9902 54.1188 6.88708 54.272 8.25791C54.2866 8.39645 54.2938 9.3152 54.2938 11.0142C54.2938 12.7058 54.3376 13.6975 54.4251 13.9892C54.5199 14.2808 54.7678 14.4959 55.1688 14.6345C55.5772 14.773 55.7813 14.9043 55.7813 15.0282C55.7813 15.2907 55.6501 15.4912 55.3876 15.6298C54.8626 15.9069 54.3449 16.0454 53.8345 16.0454C53.3313 16.0454 52.9558 15.9287 52.7079 15.6954C52.2631 15.2798 52.0261 15.072 51.997 15.072C51.9678 15.072 51.5558 15.2579 50.761 15.6298C49.9662 15.9944 49.2699 16.1767 48.672 16.1767C47.7751 16.1767 47.0715 15.9287 46.561 15.4329C46.0506 14.9371 45.7954 14.3355 45.7954 13.6282V13.3548C45.7954 12.5965 46.1235 11.9293 46.7798 11.3532C47.436 10.7772 48.6173 10.3287 50.3235 10.0079C50.9433 9.89124 51.3334 9.78187 51.4938 9.67979C51.8147 9.47562 51.9751 9.05999 51.9751 8.43291C51.9751 7.80583 51.8074 7.32458 51.472 6.98916C51.1366 6.65374 50.6881 6.48604 50.1267 6.48604C49.5652 6.48604 49.022 6.81416 48.497 7.47041C47.9793 8.11937 47.5053 8.44385 47.0751 8.44385C46.5647 8.44385 46.3095 8.07562 46.3095 7.33916ZM63.2626 6.61729H62.9454C62.559 6.61729 62.1798 6.72666 61.8079 6.94541C61.4433 7.15687 61.159 7.41937 60.9548 7.73291C60.7579 8.04645 60.6595 8.94333 60.6595 10.4235V12.1626C60.6595 13.2418 60.8235 13.9892 61.1517 14.4048C61.4798 14.8131 62.0449 15.0173 62.847 15.0173H63.0767C63.8496 15.0173 64.473 14.6527 64.947 13.9235C65.4209 13.1871 65.6579 12.3522 65.6579 11.4188L65.6798 11.1673V10.3907C65.6798 9.31885 65.4465 8.42197 64.9798 7.7001C64.5131 6.97822 63.9407 6.61729 63.2626 6.61729ZM58.1657 14.6345C58.1657 14.5543 58.2058 14.186 58.286 13.5298C58.3735 12.8735 58.4173 12.0787 58.4173 11.1454V7.99541L58.4282 7.45947V5.27197L58.4173 4.73604V4.2001L58.4063 3.9376C58.3991 3.75531 58.3954 3.4527 58.3954 3.02979C58.3954 2.16208 58.1621 1.61885 57.6954 1.4001C57.236 1.18135 57.0063 0.96989 57.0063 0.765723C57.0063 0.612598 57.1121 0.484994 57.3235 0.38291C57.8485 0.127702 58.6543 9.79276e-05 59.7407 9.79276e-05C60.1782 9.79276e-05 60.459 0.248015 60.5829 0.743848C60.6558 1.02822 60.6923 2.01624 60.6923 3.70791C60.6923 5.39958 60.8272 6.24541 61.097 6.24541C61.2647 6.24541 61.6366 6.12874 62.2126 5.89541C62.7886 5.66208 63.3902 5.54541 64.0173 5.54541C65.2204 5.54541 66.2157 6.00479 67.0032 6.92354C67.798 7.84229 68.1954 9.04176 68.1954 10.522V10.8063C68.1954 11.5209 68.0678 12.2136 67.8126 12.8845C67.3095 14.197 66.46 15.1194 65.2642 15.6517C64.6225 15.936 63.9626 16.0782 63.2845 16.0782H63.022C62.7376 16.0782 62.3037 16.009 61.7204 15.8704C61.1371 15.7319 60.5574 15.6626 59.9813 15.6626L59.0845 15.7392C58.472 15.7392 58.1657 15.3709 58.1657 14.6345ZM74.2438 1.89229C74.2438 2.21312 74.1053 2.51208 73.8282 2.78916C73.5584 3.05895 73.2886 3.19385 73.0188 3.19385C72.9605 3.20843 72.9131 3.21572 72.8767 3.21572L72.636 3.2376C72.2714 3.2376 71.9433 3.11729 71.6517 2.87666C71.3673 2.63604 71.2251 2.32614 71.2251 1.94697V1.7501C71.2251 1.37093 71.3746 1.05374 71.6735 0.798535C71.9798 0.536035 72.3298 0.404785 72.7235 0.404785H72.7782L73.1501 0.448535C73.3761 0.448535 73.6095 0.572494 73.8501 0.82041C74.098 1.06104 74.222 1.30531 74.222 1.55322L74.2438 1.65166V1.89229ZM70.7657 6.77041C70.3866 6.58812 70.197 6.41676 70.197 6.25635C70.197 6.09593 70.2735 5.96833 70.4267 5.87354C70.9589 5.5527 71.8011 5.39229 72.9532 5.39229H73.2704C73.6642 5.39229 73.8866 5.57458 73.9376 5.93916C73.9668 6.13604 73.9813 7.46312 73.9813 9.92041C73.9813 12.3704 74.0324 13.7777 74.1345 14.1423C74.2366 14.4996 74.4808 14.7767 74.8673 14.9735C75.2537 15.1631 75.447 15.3563 75.447 15.5532C75.447 15.8303 74.5428 15.9688 72.7345 15.9688L72.4063 15.9798H71.072C70.5397 15.9798 70.2735 15.8485 70.2735 15.586C70.2735 15.3673 70.4339 15.1558 70.7548 14.9517C71.0829 14.7475 71.3089 14.5215 71.4329 14.2735C71.5714 14.0037 71.6407 13.373 71.6407 12.3813L71.6517 12.0313V11.6923L71.6626 11.1782V10.8392L71.6735 10.5001C71.6735 8.77197 71.6152 7.76572 71.4985 7.48135C71.3892 7.18968 71.1449 6.9527 70.7657 6.77041Z" fill="white"/>
<path d="M84.9954 1.90322H84.6126C83.6938 1.90322 83.136 2.14385 82.9392 2.6251C82.8079 2.95322 82.5746 4.03604 82.2392 5.87354L81.397 10.4345L81.3204 10.7954L81.2548 11.1454C80.8902 13.0923 80.7079 14.0949 80.7079 14.1532V14.3173C80.7079 14.6673 81.2256 14.8423 82.261 14.8423H82.622C84.5543 14.8423 86.1475 14.1277 87.4017 12.6985C88.0579 11.9548 88.5647 11.0761 88.922 10.0626C89.2793 9.04906 89.4579 8.09385 89.4579 7.19697V6.8251L89.447 6.63916C89.447 5.13708 89.0095 3.94854 88.1345 3.07354C87.8063 2.74541 87.3579 2.46833 86.7892 2.24229C86.2277 2.01624 85.6298 1.90322 84.9954 1.90322ZM76.6829 15.6188C76.6829 15.473 77.0183 15.1813 77.6892 14.7438C78.0902 14.4886 78.3892 14.022 78.586 13.3438C78.7902 12.6657 79.1256 11.0215 79.5923 8.41104C80.0662 5.79333 80.3032 3.95583 80.3032 2.89854C80.3032 2.52666 80.1902 2.26781 79.9642 2.12197C79.4902 1.82301 79.2532 1.61156 79.2532 1.4876C79.2532 1.00635 80.9886 0.765723 84.4595 0.765723H85.0392C85.061 0.765723 85.0866 0.765723 85.1157 0.765723C86.1074 0.765723 87.0444 0.90791 87.9267 1.19229C90.5589 2.03812 91.8751 4.04333 91.8751 7.20791C91.8751 8.30895 91.6418 9.41364 91.1751 10.522C90.7084 11.6376 90.0741 12.5965 89.272 13.3985C87.5511 15.1194 85.2834 15.9798 82.4688 15.9798H80.4892L80.2048 15.9688H79.0892L77.4813 15.936C76.9491 15.936 76.6829 15.8303 76.6829 15.6188ZM98.7438 6.7376H98.4267C98.1204 6.7376 97.7704 6.85426 97.3767 7.0876C96.9829 7.32093 96.6001 7.70739 96.2282 8.24697C95.4845 9.32614 95.1126 10.5293 95.1126 11.8563V12.4032C95.1126 13.1616 95.2876 13.7777 95.6376 14.2517C95.9876 14.7256 96.385 14.9626 96.8298 14.9626H97.0485C97.8433 14.9626 98.5944 14.4194 99.3017 13.3329C100.009 12.2392 100.363 11.0688 100.363 9.82197V9.38447C100.363 8.69906 100.209 8.08656 99.9032 7.54697C99.6043 7.00739 99.2178 6.7376 98.7438 6.7376ZM93.0017 12.2173V11.9001L93.0126 11.736C93.0126 11.036 93.1803 10.2777 93.5157 9.46104C93.8438 8.64437 94.2923 7.95166 94.861 7.38291C96.0423 6.20166 97.3147 5.61104 98.6782 5.61104L98.8423 5.6001C99.9069 5.6001 100.775 5.95739 101.445 6.67197C102.124 7.37926 102.463 8.31624 102.463 9.48291V9.81104C102.463 11.4517 101.865 12.9319 100.669 14.2517C100.195 14.7767 99.6043 15.2178 98.897 15.5751C98.1897 15.9251 97.486 16.1001 96.786 16.1001H96.622L96.4579 16.0892C95.4371 16.0892 94.6058 15.7136 93.9642 14.9626C93.3225 14.2116 93.0017 13.2965 93.0017 12.2173ZM106.783 2.2751V2.02354C106.783 1.73187 106.907 1.43656 107.155 1.1376C107.41 0.83864 107.72 0.68916 108.084 0.68916H108.216C108.588 0.68916 108.861 0.798535 109.036 1.01729C109.218 1.22874 109.309 1.40374 109.309 1.54229L109.342 1.7501V2.00166C109.32 2.08916 109.309 2.15843 109.309 2.20947C109.309 2.43551 109.186 2.67249 108.938 2.92041C108.69 3.16833 108.471 3.29229 108.281 3.29229C108.238 3.30687 108.197 3.31416 108.161 3.31416L107.953 3.33604H107.909L107.581 3.29229C107.436 3.29229 107.264 3.19749 107.067 3.00791C106.878 2.81104 106.783 2.56676 106.783 2.2751ZM107.483 5.7751C108.001 5.7751 108.259 6.15062 108.259 6.90166V7.09854L108.249 7.29541C108.249 7.81312 107.964 9.49385 107.395 12.3376C106.827 15.1813 106.338 17.0188 105.93 17.8501C105.529 18.6886 104.953 19.3704 104.202 19.8954C103.458 20.4277 102.7 20.6938 101.927 20.6938C101.146 20.6938 100.756 20.4678 100.756 20.0157C100.756 19.3959 101.227 19.086 102.167 19.086C103.108 19.086 103.815 18.4043 104.289 17.0407C104.457 16.5595 104.77 15.1631 105.23 12.8517C105.696 10.5402 105.93 9.15843 105.93 8.70635C105.93 8.25426 105.857 7.94072 105.711 7.76572C105.572 7.59072 105.321 7.48135 104.956 7.4376C104.592 7.39385 104.409 7.28812 104.409 7.12041C104.409 6.9527 104.584 6.7777 104.934 6.59541C105.999 6.04854 106.787 5.7751 107.297 5.7751H107.483ZM115.959 6.7376H115.642C115.336 6.7376 114.986 6.85426 114.592 7.0876C114.199 7.32093 113.816 7.70739 113.444 8.24697C112.7 9.32614 112.328 10.5293 112.328 11.8563V12.4032C112.328 13.1616 112.503 13.7777 112.853 14.2517C113.203 14.7256 113.601 14.9626 114.045 14.9626H114.264C115.059 14.9626 115.81 14.4194 116.517 13.3329C117.225 12.2392 117.578 11.0688 117.578 9.82197V9.38447C117.578 8.69906 117.425 8.08656 117.119 7.54697C116.82 7.00739 116.433 6.7376 115.959 6.7376ZM110.217 12.2173V11.9001L110.228 11.736C110.228 11.036 110.396 10.2777 110.731 9.46104C111.059 8.64437 111.508 7.95166 112.077 7.38291C113.258 6.20166 114.53 5.61104 115.894 5.61104L116.058 5.6001C117.122 5.6001 117.99 5.95739 118.661 6.67197C119.339 7.37926 119.678 8.31624 119.678 9.48291V9.81104C119.678 11.4517 119.08 12.9319 117.884 14.2517C117.411 14.7767 116.82 15.2178 116.113 15.5751C115.405 15.9251 114.702 16.1001 114.002 16.1001H113.838L113.674 16.0892C112.653 16.0892 111.821 15.7136 111.18 14.9626C110.538 14.2116 110.217 13.2965 110.217 12.2173Z" fill="#28B2F6"/>
</svg>
