<svg width="70" height="86" viewBox="0 0 70 86" fill="none" xmlns="http://www.w3.org/2000/svg">
<path d="M35 0V14.3737L58.6973 32.7431C60.6669 29.5249 60.8996 22.6036 58.4221 19.9693L35 0Z" fill="#138ACE"/>
<path d="M70.0005 29.8404L58.4225 19.9692C61.4532 25.6077 59.1883 31.8194 58.6977 32.743L36.8047 73.966L39.4214 78.4447L70.0005 29.8404Z" fill="#025A9A"/>
<path d="M58.6976 32.7432L27.2754 57.6562L36.8046 73.9662L58.6976 32.7432Z" fill="#0C7EC5"/>
<path d="M27.2751 57.6562H17.5L34.988 85.4911L39.421 78.4449L27.2751 57.6562Z" fill="#026EB4"/>
<path d="M27.2752 57.656L11.2969 32.8724L0 29.8403L17.5 57.656H27.2752Z" fill="#1C9AD7"/>
<path d="M58.6973 32.7429C35 14.3735 58.6973 32.7429 35 14.3735V51.5322L58.6973 32.7429Z" fill="#2BAEE2"/>
<path d="M35 14.3735L11.2969 32.8724L27.2751 57.6559L35 51.5322V14.3735Z" fill="#7BDDF6"/>
<path d="M35.0001 0L0 29.8405L11.2969 32.8726L35.0001 14.3737V0Z" fill="#49C0E8"/>
</svg>
